<svg width="24" height="54" viewBox="0 0 24 54" fill="none" xmlns="http://www.w3.org/2000/svg">
<path d="M10.9393 53.0607C11.5251 53.6465 12.4749 53.6465 13.0607 53.0607L22.6066 43.5147C23.1924 42.9289 23.1924 41.9792 22.6066 41.3934C22.0208 40.8076 21.0711 40.8076 20.4853 41.3934L12 49.8787L3.51472 41.3934C2.92893 40.8076 1.97919 40.8076 1.3934 41.3934C0.807613 41.9792 0.807613 42.9289 1.3934 43.5147L10.9393 53.0607ZM10.5 6.55671e-08L10.5 52L13.5 52L13.5 -6.55671e-08L10.5 6.55671e-08Z" fill="url(#paint0_linear_2_30)"/>
<defs>
<linearGradient id="paint0_linear_2_30" x1="12.5" y1="-2.18557e-08" x2="12.5" y2="52" gradientUnits="userSpaceOnUse">
<stop offset="0.0572917" stop-color="#00D975" stop-opacity="0"/>
<stop offset="1" stop-color="#00D975"/>
</linearGradient>
</defs>
</svg>
