<svg width="35" height="22" viewBox="0 0 35 22" fill="none" xmlns="http://www.w3.org/2000/svg">
<path d="M34.425 17.5249V17.1169H34.3164L34.1907 17.3969L34.0658 17.1169H33.9568V17.5249H34.034V17.2176L34.1515 17.4827H34.2314L34.3489 17.2169V17.5249H34.4254H34.425ZM33.736 17.5249V17.1868H33.875V17.118H33.5198V17.1868H33.6588V17.5249H33.7353H33.736Z" fill="#F79410"/>
<path d="M22.0802 19.27H12.681V2.78101H22.0804L22.0802 19.27Z" fill="#FF5F00"/>
<path d="M13.2769 11.0256C13.2769 7.68079 14.8813 4.70118 17.3796 2.781C15.4885 1.32537 13.1495 0.535356 10.7413 0.53883C4.80889 0.53883 0 5.23386 0 11.0256C0 16.8174 4.80889 21.5124 10.7413 21.5124C13.1496 21.516 15.4886 20.7259 17.3797 19.2703C14.8816 17.3504 13.2769 14.3706 13.2769 11.0256Z" fill="#EB001B"/>
<path d="M34.7607 11.0256C34.7607 16.8174 29.9518 21.5124 24.0195 21.5124C21.6109 21.5159 19.2716 20.7259 17.3801 19.2703C19.8791 17.3501 21.4835 14.3706 21.4835 11.0256C21.4835 7.68062 19.8791 4.70118 17.3801 2.781C19.2716 1.32542 21.6108 0.535417 24.0193 0.538829C29.9517 0.538829 34.7606 5.23386 34.7606 11.0256" fill="#F79E1B"/>
</svg>
