<svg width="62" height="20" viewBox="0 0 62 20" fill="none" xmlns="http://www.w3.org/2000/svg">
<path d="M26.9398 19.1904H21.9612L25.0727 0.523013H30.0518L26.9398 19.1904ZM17.7729 0.523013L13.0265 13.3626L12.4649 10.5977L12.4654 10.5987L10.7902 2.20379C10.7902 2.20379 10.5876 0.523013 8.42849 0.523013H0.581819L0.489746 0.839095C0.489746 0.839095 2.88927 1.32645 5.6975 2.97278L10.0229 19.1909H15.2102L23.131 0.523013H17.7729ZM56.9321 19.1904H61.5035L57.5177 0.522513H53.5156C51.6675 0.522513 51.2174 1.91368 51.2174 1.91368L43.7922 19.1904H48.9821L50.0199 16.4175H56.3489L56.9321 19.1904ZM51.4537 12.5871L54.0696 5.60131L55.5412 12.5871H51.4537ZM44.1815 5.01209L44.892 1.00338C44.892 1.00338 42.6996 0.189453 40.4142 0.189453C37.9435 0.189453 32.0764 1.24356 32.0764 6.3693C32.0764 11.1919 38.9625 11.2519 38.9625 13.785C38.9625 16.3182 32.7859 15.8643 30.7475 14.2669L30.0073 18.4583C30.0073 18.4583 32.2304 19.5125 35.6269 19.5125C39.0244 19.5125 44.1498 17.7952 44.1498 13.1214C44.1498 8.26779 37.2018 7.81589 37.2018 5.70567C37.2023 3.59496 42.051 3.8661 44.1815 5.01209Z" fill="#2566AF"/>
<path d="M12.4654 10.5984L10.7902 2.20348C10.7902 2.20348 10.5876 0.522705 8.42849 0.522705H0.581819L0.489746 0.838787C0.489746 0.838787 4.26116 1.60178 7.87861 4.4605C11.3375 7.19289 12.4654 10.5984 12.4654 10.5984Z" fill="#E6A540"/>
</svg>
